<svg xmlns="http://www.w3.org/2000/svg" xmlns:xlink="http://www.w3.org/1999/xlink" width="420.152" height="199.517" viewBox="0 0 420.152 199.517">
  <defs>
    <clipPath id="clip-path">
      <rect id="Rectangle_1609" data-name="Rectangle 1609" width="44.502" height="44.502" fill="#5e6e27"/>
    </clipPath>
  </defs>
  <g id="Group_7572" data-name="Group 7572" transform="translate(-1211 -4684.896)">
    <g id="Group_7550" data-name="Group 7550">
      <path id="Path_6077" data-name="Path 6077" d="M263.012,36.633H154.954a18.317,18.317,0,0,1,0-36.633H263.012a18.317,18.317,0,0,1,0,36.633" transform="translate(1249.359 4684.896)" fill="#5e6e27"/>
      <path id="Path_6078" data-name="Path 6078" d="M178.06,32.385V20.366l-4.68,12.019h-2.105l-4.652-12.019V32.385h-4.763V13.913h6.618l3.849,10.025,3.878-10.025h6.619V32.385Z" transform="translate(1240.276 4679.887)" fill="#fff"/>
      <rect id="Rectangle_1539" data-name="Rectangle 1539" width="4.763" height="18.472" transform="translate(1426.426 4693.799)" fill="#fff"/>
      <path id="Path_6079" data-name="Path 6079" d="M210.382,29.626l2.519-3.573a8.349,8.349,0,0,0,5.9,2.438c1.634,0,2.632-.637,2.632-1.524,0-2.52-10.469-.5-10.469-7.616,0-3.1,2.631-5.871,7.366-5.871a11.269,11.269,0,0,1,7.505,2.575l-2.6,3.407a8.693,8.693,0,0,0-5.4-1.911c-1.385,0-1.994.554-1.994,1.329,0,2.354,10.441.637,10.441,7.505,0,3.711-2.742,6.176-7.7,6.176a11.3,11.3,0,0,1-8.2-2.936" transform="translate(1222.802 4680.041)" fill="#fff"/>
      <path id="Path_6080" data-name="Path 6080" d="M236.61,29.626l2.52-3.573a8.341,8.341,0,0,0,5.9,2.438c1.635,0,2.632-.637,2.632-1.524,0-2.52-10.469-.5-10.469-7.616,0-3.1,2.631-5.871,7.367-5.871a11.274,11.274,0,0,1,7.505,2.575l-2.6,3.407a8.7,8.7,0,0,0-5.4-1.911c-1.385,0-1.994.554-1.994,1.329,0,2.354,10.441.637,10.441,7.505,0,3.711-2.742,6.176-7.7,6.176a11.3,11.3,0,0,1-8.2-2.936" transform="translate(1213.356 4680.041)" fill="#fff"/>
      <rect id="Rectangle_1540" data-name="Rectangle 1540" width="4.763" height="18.472" transform="translate(1468.079 4693.799)" fill="#fff"/>
      <path id="Path_6081" data-name="Path 6081" d="M276.082,22.991c0-5.622,4.238-9.554,9.888-9.554s9.858,3.933,9.858,9.554-4.21,9.555-9.858,9.555-9.888-3.933-9.888-9.555m14.9,0c0-3.018-1.966-5.345-5.011-5.345-3.075,0-5.041,2.327-5.041,5.345,0,2.991,1.966,5.344,5.041,5.344,3.045,0,5.011-2.353,5.011-5.344" transform="translate(1199.141 4680.059)" fill="#fff"/>
      <path id="Path_6082" data-name="Path 6082" d="M323.282,32.385l-7.81-10.69v10.69H310.71V13.913h4.9l7.476,10.164V13.913h4.791V32.385Z" transform="translate(1186.671 4679.887)" fill="#fff"/>
      <path id="Path_9422" data-name="Path 9422" d="M26.418,0,20.706-10.29a8.488,8.488,0,0,0,5.586-8.4c0-5.208-3.528-9.324-9.744-9.324H2.52V0H9.744V-9.408h3.7L18.144,0ZM15.456-15.708H9.744v-6.006h5.712c1.89,0,3.486,1.092,3.486,2.982C18.942-16.758,17.346-15.708,15.456-15.708ZM50.82,0V-6.3H37.506v-4.746h13.02v-6.3H37.506v-4.368H50.82v-6.3H30.282V0ZM73.5,0V-6.3H62.244V-28.014H55.02V0Zm30.954,0L93.87-28.014H84.8L74.256,0h8.19l1.386-4.032H94.878L96.264,0ZM92.9-10.332h-7.14l3.57-10.542ZM114.828,0V-21.714h7.812v-6.3H99.75v6.3H107.6V0Zm18.48,0V-28.014h-7.224V0Zm18.606.5c8.568,0,14.952-5.964,14.952-14.49s-6.384-14.49-14.952-14.49-14.994,5.964-14.994,14.49S143.346.5,151.914.5Zm0-6.384c-4.662,0-7.644-3.57-7.644-8.106,0-4.578,2.982-8.106,7.644-8.106,4.62,0,7.6,3.528,7.6,8.106C159.516-9.45,156.534-5.88,151.914-5.88ZM196.56,0V-28.014h-7.266V-12.6l-11.34-15.414H170.52V0h7.224V-16.212L189.588,0Zm15.456.5c7.518,0,11.676-3.738,11.676-9.366,0-10.416-15.834-7.812-15.834-11.382,0-1.176.924-2.016,3.024-2.016a13.189,13.189,0,0,1,8.19,2.9l3.948-5.166a17.089,17.089,0,0,0-11.382-3.906c-7.182,0-11.172,4.2-11.172,8.9,0,10.794,15.876,7.728,15.876,11.55,0,1.344-1.512,2.31-3.99,2.31a12.657,12.657,0,0,1-8.946-3.7l-3.822,5.418C202.4-1.26,206.346.5,212.016.5ZM253.134,0V-28.014H245.91v10.458H234.276V-28.014h-7.224V0h7.224V-11.256H245.91V0ZM265.4,0V-28.014h-7.224V0Zm12.264,0V-9.408h6.8c6.3,0,9.744-4.242,9.744-9.282,0-5.082-3.444-9.324-9.744-9.324H270.438V0ZM283.5-15.708h-5.838v-6.006H283.5c1.932,0,3.36,1.092,3.36,3.024C286.86-16.8,285.432-15.708,283.5-15.708ZM307.86.5c7.518,0,11.676-3.738,11.676-9.366,0-10.416-15.834-7.812-15.834-11.382,0-1.176.924-2.016,3.024-2.016a13.189,13.189,0,0,1,8.19,2.9l3.948-5.166a17.089,17.089,0,0,0-11.382-3.906c-7.182,0-11.172,4.2-11.172,8.9,0,10.794,15.876,7.728,15.876,11.55,0,1.344-1.512,2.31-3.99,2.31a12.657,12.657,0,0,1-8.946-3.7l-3.822,5.418C298.242-1.26,302.19.5,307.86.5Z" transform="translate(1298.567 4771.486)" fill="#353027"/>
      <path id="Path_9421" data-name="Path 9421" d="M26.418,0,20.706-10.29a8.488,8.488,0,0,0,5.586-8.4c0-5.208-3.528-9.324-9.744-9.324H2.52V0H9.744V-9.408h3.7L18.144,0ZM15.456-15.708H9.744v-6.006h5.712c1.89,0,3.486,1.092,3.486,2.982C18.942-16.758,17.346-15.708,15.456-15.708ZM50.82,0V-6.3H37.506v-4.746h13.02v-6.3H37.506v-4.368H50.82v-6.3H30.282V0ZM65.436.5c7.518,0,11.676-3.738,11.676-9.366,0-10.416-15.834-7.812-15.834-11.382,0-1.176.924-2.016,3.024-2.016a13.189,13.189,0,0,1,8.19,2.9l3.948-5.166a17.089,17.089,0,0,0-11.382-3.906c-7.182,0-11.172,4.2-11.172,8.9,0,10.794,15.876,7.728,15.876,11.55,0,1.344-1.512,2.31-3.99,2.31a12.657,12.657,0,0,1-8.946-3.7L53-3.948C55.818-1.26,59.766.5,65.436.5ZM93.744.5c8.946,0,13.188-4.914,13.188-11.886V-28.014H99.624v16.422c0,3.318-2.016,5.712-5.88,5.712-3.948,0-5.922-2.394-5.922-5.712V-28.014h-7.35V-11.34C80.472-4.452,84.714.5,93.744.5ZM130.452,0V-6.3H119.2V-28.014h-7.224V0Zm8.862,0V-21.714h7.812v-6.3h-22.89v6.3h7.854V0Zm21.042.5c7.518,0,11.676-3.738,11.676-9.366,0-10.416-15.834-7.812-15.834-11.382,0-1.176.924-2.016,3.024-2.016a13.189,13.189,0,0,1,8.19,2.9l3.948-5.166a17.089,17.089,0,0,0-11.382-3.906c-7.182,0-11.172,4.2-11.172,8.9,0,10.794,15.876,7.728,15.876,11.55,0,1.344-1.512,2.31-3.99,2.31a12.657,12.657,0,0,1-8.946-3.7l-3.822,5.418C150.738-1.26,154.686.5,160.356.5Z" transform="translate(1369.766 4870.93)" fill="#353027"/>
      <g id="Group_5642" data-name="Group 5642">
        <path id="Path_6083" data-name="Path 6083" d="M262.624,178.918a19.773,19.773,0,1,1-19.773-19.773,19.773,19.773,0,0,1,19.773,19.773" transform="translate(1218.23 4627.582)" fill="#5e6e27"/>
        <path id="Path_6084" data-name="Path 6084" d="M251.044,187.457v8.188h-4.921v-8.188H239V183h7.127v-7.849h4.921V183h7.127v4.453Z" transform="translate(1212.497 4621.816)" fill="#fff"/>
      </g>
      <rect id="Rectangle_1541" data-name="Rectangle 1541" width="332.584" height="199.517" transform="translate(1298.567 4684.896)" fill="none"/>
    </g>
    <g id="Group_5533" data-name="Group 5533" transform="translate(1211 4737.646)">
      <g id="Group_5532" data-name="Group 5532" transform="translate(0 0)" clip-path="url(#clip-path)">
        <path id="Path_6316" data-name="Path 6316" d="M44.5,22.25A22.251,22.251,0,1,1,22.252,0,22.249,22.249,0,0,1,44.5,22.25" transform="translate(0 0.001)" fill="#5e6e27"/>
        <path id="Path_6317" data-name="Path 6317" d="M15.9,4.962V9.947H3.779v8.078H15.9v4.983l14.039-9.021Z" transform="translate(6.296 8.266)" fill="#fff"/>
      </g>
    </g>
  </g>
</svg>
