<?xml version="1.0" standalone="no"?>
<!DOCTYPE svg PUBLIC "-//W3C//DTD SVG 20010904//EN"
 "http://www.w3.org/TR/2001/REC-SVG-20010904/DTD/svg10.dtd">
<svg version="1.0" xmlns="http://www.w3.org/2000/svg"
 width="500.000000pt" height="500.000000pt" viewBox="0 0 500.000000 500.000000"
 preserveAspectRatio="xMidYMid meet">
<metadata>
Created by potrace 1.14, written by Peter Selinger 2001-2017
</metadata>
<g transform="translate(0.000000,500.000000) scale(0.100000,-0.100000)"
fill="#000000" stroke="none">
<path d="M2377 4404 c-1 -1 -36 -5 -77 -8 -41 -4 -95 -11 -120 -16 -25 -6 -56
-12 -70 -14 -107 -18 -314 -88 -435 -148 -104 -52 -263 -145 -285 -168 -3 -3
-32 -25 -65 -50 -66 -50 -244 -223 -293 -285 -17 -22 -45 -58 -61 -80 -17 -22
-34 -44 -39 -50 -63 -80 -177 -304 -227 -448 -76 -217 -109 -409 -109 -642 1
-647 329 -1243 879 -1598 76 -48 213 -121 285 -150 25 -10 54 -22 65 -27 18
-8 117 -41 140 -47 6 -1 44 -11 85 -22 41 -11 97 -22 124 -26 27 -3 52 -8 55
-10 25 -15 299 -22 426 -11 72 6 103 10 170 22 11 2 36 7 55 10 58 10 240 63
310 91 518 204 925 628 1109 1154 26 72 45 139 65 229 46 201 51 519 11 720
-3 14 -8 39 -11 55 -12 71 -48 197 -81 285 -189 510 -605 924 -1117 1114 -101
38 -246 78 -326 91 -25 4 -52 9 -60 10 -71 13 -392 28 -403 19z"/>
</g>
</svg>
