<svg xmlns="http://www.w3.org/2000/svg" xmlns:xlink="http://www.w3.org/1999/xlink" width="132" height="132" viewBox="0 0 132 132">
  <defs>
    <clipPath id="clip-path">
      <rect id="Rectangle_1561" data-name="Rectangle 1561" width="66.282" height="68.306" fill="none"/>
    </clipPath>
  </defs>
  <g id="Group_5641" data-name="Group 5641" transform="translate(-1426 -4188)">
    <rect id="Rectangle_1607" data-name="Rectangle 1607" width="132" height="132" rx="19" transform="translate(1426 4188)" fill="#f7f7f7"/>
    <g id="Group_5446" data-name="Group 5446" transform="translate(1458.859 4218.523)">
      <g id="Group_5445" data-name="Group 5445" transform="translate(0 0)" clip-path="url(#clip-path)">
        <path id="Path_6168" data-name="Path 6168" d="M58.138,72.286C29.945,85.7,12.45,74.478,1.249,67.659c-.693-.429-1.871.1-.849,1.275,3.732,4.524,15.96,15.43,31.922,15.43S57.8,75.648,58.985,74.128,59.331,71.788,58.138,72.286Zm7.918-4.372c-.757-.986-4.6-1.17-7.023-.873s-6.065,1.771-5.749,2.661c.163.333.494.183,2.16.033,1.67-.166,6.348-.757,7.324.518s-1.493,7.4-1.944,8.382c-.435.986.167,1.24.987.584a12.8,12.8,0,0,0,3.252-4.762C66.037,72.038,66.632,68.665,66.056,67.914Z" transform="translate(0 -16.058)" fill="#f98409"/>
        <path id="Path_6169" data-name="Path 6169" d="M43.146,28.851c0,3.52.089,6.456-1.69,9.583A7.327,7.327,0,0,1,35.2,42.54c-3.469,0-5.49-2.644-5.49-6.546,0-7.7,6.9-9.1,13.434-9.1Zm9.113,22.026a1.886,1.886,0,0,1-2.135.216,22.237,22.237,0,0,1-5.186-6.024c-4.957,5.058-8.465,6.57-14.9,6.57-7.6,0-13.524-4.69-13.524-14.082a15.353,15.353,0,0,1,9.634-14.768c4.906-2.161,11.757-2.542,16.993-3.14V18.48c0-2.148.165-4.689-1.093-6.545a6.048,6.048,0,0,0-5.072-2.351c-3.444,0-6.52,1.767-7.27,5.427a1.891,1.891,0,0,1-1.563,1.652l-8.77-.94a1.6,1.6,0,0,1-1.347-1.894C20.052,3.2,29.648,0,38.24,0c4.4,0,10.142,1.17,13.613,4.5,4.4,4.106,3.978,9.583,3.978,15.544V34.126c0,4.233,1.754,6.088,3.406,8.376a1.7,1.7,0,0,1-.025,2.4c-1.843,1.538-5.122,4.4-6.927,6l-.025-.025" transform="translate(-3.964 0)" fill="#050605" fill-rule="evenodd"/>
        <path id="Path_6170" data-name="Path 6170" d="M58.138,72.286C29.945,85.7,12.45,74.478,1.249,67.659c-.693-.429-1.871.1-.849,1.275,3.732,4.524,15.96,15.43,31.922,15.43S57.8,75.648,58.985,74.128,59.331,71.788,58.138,72.286Zm7.918-4.372c-.757-.986-4.6-1.17-7.023-.873s-6.065,1.771-5.749,2.661c.163.333.494.183,2.16.033,1.67-.166,6.348-.757,7.324.518s-1.493,7.4-1.944,8.382c-.435.986.167,1.24.987.584a12.8,12.8,0,0,0,3.252-4.762C66.037,72.038,66.632,68.665,66.056,67.914Z" transform="translate(0 -16.058)" fill="#717f31"/>
        <path id="Path_6171" data-name="Path 6171" d="M43.146,28.851c0,3.52.089,6.456-1.69,9.583A7.327,7.327,0,0,1,35.2,42.54c-3.469,0-5.49-2.644-5.49-6.546,0-7.7,6.9-9.1,13.434-9.1Zm9.113,22.026a1.886,1.886,0,0,1-2.135.216,22.237,22.237,0,0,1-5.186-6.024c-4.957,5.058-8.465,6.57-14.9,6.57-7.6,0-13.524-4.69-13.524-14.082a15.353,15.353,0,0,1,9.634-14.768c4.906-2.161,11.757-2.542,16.993-3.14V18.48c0-2.148.165-4.689-1.093-6.545a6.048,6.048,0,0,0-5.072-2.351c-3.444,0-6.52,1.767-7.27,5.427a1.891,1.891,0,0,1-1.563,1.652l-8.77-.94a1.6,1.6,0,0,1-1.347-1.894C20.052,3.2,29.648,0,38.24,0c4.4,0,10.142,1.17,13.613,4.5,4.4,4.106,3.978,9.583,3.978,15.544V34.126c0,4.233,1.754,6.088,3.406,8.376a1.7,1.7,0,0,1-.025,2.4c-1.843,1.538-5.122,4.4-6.927,6l-.025-.025" transform="translate(-3.964 0)" fill="#555f24" fill-rule="evenodd"/>
      </g>
    </g>
  </g>
</svg>
