<svg xmlns="http://www.w3.org/2000/svg" width="111" height="111" viewBox="0 0 111 111">
  <g id="Group_8006" data-name="Group 8006" transform="translate(-905 -640)">
    <g id="Group_7641" data-name="Group 7641" transform="translate(0 43)">
      <rect id="Rectangle_2702" data-name="Rectangle 2702" width="111" height="111" rx="17" transform="translate(905 597)" fill="#f7f7f7"/>
    </g>
    <g id="group" transform="translate(913.054 660.193)">
      <g id="Group_7899" data-name="Group 7899" transform="translate(13.501)">
        <g id="Group_7898" data-name="Group 7898">
          <path id="Path_10512" data-name="Path 10512" d="M208.2,14.711a7.356,7.356,0,1,0-7.356-7.356A7.354,7.354,0,0,0,208.2,14.711Z" transform="translate(-175.003)" fill="#484d1e"/>
          <path id="Path_10513" data-name="Path 10513" d="M359.363,36.045a7.356,7.356,0,1,0-7.355-7.356A7.354,7.354,0,0,0,359.363,36.045Z" transform="translate(-305.322 -18.392)" fill="#738942"/>
          <path id="Path_10514" data-name="Path 10514" d="M60.7,36.045a7.356,7.356,0,1,0-7.356-7.356A7.354,7.354,0,0,0,60.7,36.045Z" transform="translate(-47.846 -18.392)" fill="#738942"/>
          <path id="Path_10515" data-name="Path 10515" d="M364.94,170.856l-1.886-15.079a7.367,7.367,0,0,0-7.3-6.443h-7.264a7.283,7.283,0,0,0-2.451.433,1.47,1.47,0,0,0-.93,1.765,12.016,12.016,0,0,1,.347,1.671l1.951,17.088a7.945,7.945,0,0,1-1.939,6.185,7.343,7.343,0,0,1-1.242,1.08,1.464,1.464,0,0,0-.612,1.3l1.156,16.185a1.472,1.472,0,0,0,1.468,1.368h11.769a1.474,1.474,0,0,0,1.468-1.365l1.374-19.239a4.409,4.409,0,0,0,4.087-4.949Z" transform="translate(-298.085 -128.738)" fill="#738942"/>
          <path id="Path_10516" data-name="Path 10516" d="M34.145,177.861A7.765,7.765,0,0,1,32.5,176.5a7.945,7.945,0,0,1-1.939-6.185l1.951-17.088a11.52,11.52,0,0,1,.371-1.792,1.474,1.474,0,0,0-1.044-1.818,7.234,7.234,0,0,0-1.857-.259H22.717a7.362,7.362,0,0,0-7.3,6.443l-1.886,15.076a4.414,4.414,0,0,0,4.09,4.952L19,195.065a1.469,1.469,0,0,0,1.468,1.365H32.235a1.474,1.474,0,0,0,1.468-1.365l1.133-15.85A1.458,1.458,0,0,0,34.145,177.861Z" transform="translate(-13.501 -128.756)" fill="#738942"/>
          <path id="Path_10517" data-name="Path 10517" d="M184.629,152.235l-1.951-17.091a7.785,7.785,0,0,0-7.5-7.144h-7.512a7.783,7.783,0,0,0-7.5,7.144l-1.951,17.089a4.992,4.992,0,0,0,1.209,3.9,4.348,4.348,0,0,0,3.022,1.486l1.624,21.984a1.473,1.473,0,0,0,1.468,1.362h11.769a1.473,1.473,0,0,0,1.468-1.362l1.624-21.984a4.354,4.354,0,0,0,3.022-1.486,5,5,0,0,0,1.207-3.892Z" transform="translate(-138.228 -110.347)" fill="#484d1e"/>
        </g>
      </g>
    </g>
  </g>
</svg>
