<svg xmlns="http://www.w3.org/2000/svg" width="111" height="111" viewBox="0 0 111 111">
  <g id="Group_8007" data-name="Group 8007" transform="translate(-532 -640)">
    <g id="Group_7642" data-name="Group 7642" transform="translate(0 43)">
      <rect id="Rectangle_2701" data-name="Rectangle 2701" width="111" height="111" rx="17" transform="translate(532 597)" fill="#f7f7f7"/>
    </g>
    <g id="history" transform="translate(551.789 660.289)">
      <path id="Path_10584" data-name="Path 10584" d="M63.181,13.864l3.075,0,0-4.126-9.442-.007L55.6,19.247l4.093.524.4-3.149A31.044,31.044,0,0,1,35.26,66.3h-.023A31.082,31.082,0,1,1,46.748,6.365l1.534-3.83A35.2,35.2,0,1,0,35.233,70.422h.026A35.18,35.18,0,0,0,63.181,13.864Z" transform="translate(0)" fill="#434c1f"/>
      <path id="Path_10585" data-name="Path 10585" d="M121.457,100.059a21.454,21.454,0,1,0,21.457,21.454A21.479,21.479,0,0,0,121.457,100.059Zm8.844,23.517H119.394V112.67h4.126v6.779H130.3Z" transform="translate(-86.246 -86.297)" fill="#717f31"/>
    </g>
  </g>
</svg>
