<svg xmlns="http://www.w3.org/2000/svg" width="111" height="111" viewBox="0 0 111 111">
  <g id="Group_8005" data-name="Group 8005" transform="translate(-1294 -640)">
    <g id="Group_7640" data-name="Group 7640" transform="translate(0 43)">
      <rect id="Rectangle_2703" data-name="Rectangle 2703" width="111" height="111" rx="17" transform="translate(1294 597)" fill="#f7f7f7"/>
    </g>
    <g id="positive" transform="translate(1290.856 655.172)">
      <path id="Path_10586" data-name="Path 10586" d="M96.476,38.113,86.151,30.556l-.463-3.678a30.71,30.71,0,1,0-43.57,31.611l-2.9,14.547a2.362,2.362,0,0,0,1.837,2.775l23.131,4.8A2.362,2.362,0,0,0,67,78.667l2.045-12.814H88.288a2.362,2.362,0,0,0,2.337-2.706L88.266,47.1l8.074-5.085a2.362,2.362,0,0,0,.136-3.9ZM55.215,51.679A21.261,21.261,0,1,1,76.476,30.418,21.285,21.285,0,0,1,55.215,51.679Z" transform="translate(0 0)" fill="#738942"/>
      <path id="Path_10587" data-name="Path 10587" d="M131.044,88.143a16.536,16.536,0,1,0,16.536,16.536A16.555,16.555,0,0,0,131.044,88.143Zm11.12,13.482-11.812,11.812a2.362,2.362,0,0,1-3.341,0l-7.087-7.087a2.362,2.362,0,0,1,3.341-3.341l5.417,5.417,10.141-10.141a2.362,2.362,0,1,1,3.34,3.341Z" transform="translate(-75.829 -74.261)" fill="#484d1e"/>
    </g>
  </g>
</svg>
